<svg viewBox="0 0 320.2 229.8" xmlns="http://www.w3.org/2000/svg" xmlns:xlink="http://www.w3.org/1999/xlink"><linearGradient id="a" gradientUnits="userSpaceOnUse" x1="89.91" x2="410.09" y1="214.17" y2="214.17"><stop offset="0" stop-color="#3c995e"/><stop offset="1" stop-color="#5bb977"/></linearGradient><linearGradient id="b" x1="160.7" x2="218.6" xlink:href="#a" y1="259.24" y2="259.24"/><linearGradient id="c" x1="173.95" x2="205.53" xlink:href="#a" y1="214.17" y2="214.17"/><path d="m249.8 329.1h-129.2c-14.6 0-26.1-8.6-29.6-22.1a33.1 33.1 0 0 1 -1-8.3q-.1-84.6-.1-169.1c0-17.3 12.7-30.2 30.1-30.3h259.2c14.8 0 26.4 8.6 29.9 22.2a33 33 0 0 1 .9 8.3q.2 84.4.1 168.8c0 17.6-12.8 30.4-30.6 30.5zm-86.1-92-1.4 1.2c-13.8 9.5-21.1 22.6-22.1 39.3-.4 6.8 3.3 11.1 10 11.1q39.6.2 79.1 0c6.5 0 10.2-4.1 10-10.6-.4-9.9-3-19.2-9.2-27-4.1-5.3-9.2-9.8-13.9-14.7 13.2-16.2 8.8-36.7-3.4-47.8a34.7 34.7 0 0 0 -45-1c-11.5 9.2-19.2 30.4-4.1 49.5zm86.6-97.5h-97.5a36.2 36.2 0 0 0 -4.7.2 9 9 0 0 0 -7.6 11.2c1.1 4.8 4.7 7.2 10.9 7.2h197.2a23.6 23.6 0 0 0 3.8-.2 9.1 9.1 0 0 0 7.1-11c-1.1-5-4.6-7.4-11-7.4zm65.3 50.2h-34.4c-6.1 0-10.4 3.8-10.5 9.2s4.4 9.5 10.6 9.5h68.1c6 0 10.4-3.9 10.5-9.3s-4.4-9.4-10.6-9.4zm-.3 58.8h34c6.3 0 10.7-4 10.6-9.5s-4.5-9.2-10.5-9.2h-68.1c-6.2 0-10.7 4.1-10.6 9.5s4.4 9.2 10.5 9.2zm-10.2 40.1c8.5 0 16.9.2 25.4 0a9.1 9.1 0 0 0 9.2-9.4 9 9 0 0 0 -9.2-9.1c-16.9-.2-33.7-.1-50.6 0-4.2 0-7.1 2.3-8.5 6.2-2.3 6 2 12.1 8.7 12.3 8.4.2 16.7 0 25 0z" fill="url(#a)" transform="translate(-89.9 -99.3)"/><path d="m160.7 269.9c3.1-12.4 16.5-21.7 30-21.3s26 10.3 27.9 21.3z" fill="url(#b)" transform="translate(-89.9 -99.3)"/><path d="m189.6 229.8a15.7 15.7 0 1 1 15.9-15.4 15.8 15.8 0 0 1 -15.9 15.4z" fill="url(#c)" transform="translate(-89.9 -99.3)"/></svg>