<svg viewBox="0 0 281.9 281.9" xmlns="http://www.w3.org/2000/svg" xmlns:xlink="http://www.w3.org/1999/xlink"><linearGradient id="a" gradientUnits="userSpaceOnUse" x1="94.41" x2="376.3" y1="222.57" y2="222.57"><stop offset="0" stop-color="#3c995e"/><stop offset="1" stop-color="#5bb977"/></linearGradient><path d="m94.4 222.4v-111.2c0-17.3 12.3-29.6 29.6-29.6h222.6c17.5 0 29.7 12.3 29.7 29.8v222.4c0 17.5-12.2 29.7-29.7 29.7h-222.7c-17.2 0-29.5-12.3-29.5-29.6zm133.6 107.1v-38h-42.8a10.1 10.1 0 0 0 -.3 1.7c0 11.4.1 22.9 0 34.3 0 2 .8 2.3 2.5 2.3h38.4zm-100.4-38v38h42.6v-38zm100.3-64.6v-37.9h-42.8v37.9zm57.6.1v-38h-42.7v38zm-57.5 51.2v-38h-42.9v38zm57.6 0v-37.9h-42.9v37.9zm14.9-89.2v37.9h42.6v-37.9zm-130.3 89.2v-37.9h-42.6v37.9zm173 0v-37.9h-42.7v37.9zm-164-165.8a12.2 12.2 0 0 0 -11.9-12 12 12 0 0 0 -11.9 11.8 11.8 11.8 0 0 0 11.9 12.1 12 12 0 0 0 11.9-11.9zm136.1 0a12 12 0 0 0 -11.8-12 12 12 0 1 0 0 23.9 11.8 11.8 0 0 0 11.8-11.9zm-80 11.9a12 12 0 0 0 12-11.7 12 12 0 1 0 -12 11.7z" fill="url(#a)" transform="translate(-94.4 -81.6)"/></svg>