<svg viewBox="0 0 191.5 191.2" xmlns="http://www.w3.org/2000/svg"><g stroke="#000" stroke-miterlimit="10" transform="translate(-483.4 -470.3)"><path d="m483.9 565.8a95.4 95.4 0 0 1 103-94.7 93.6 93.6 0 0 1 42 13.7c4.2 2.6 5.4 5 3.9 7.7s-4.2 2.7-8.5.1c-44.9-27.5-103.8-8.9-124.5 39.3-22.6 52.8 11.9 112.9 68.8 119.7 53.4 6.4 99.7-36.8 96.5-90.3-.5-8.7-3.6-17.3-5.4-25.9-.3-1.9-.5-4 .2-5.6s2.9-2 4.1-1.7a6.9 6.9 0 0 1 3.8 3.5 87.6 87.6 0 0 1 6.5 29.9 95.3 95.3 0 0 1 -86.3 99.1c-49.8 4.9-96.2-31.6-102.8-81-.6-4.5-.9-9.2-1.3-13.8z"/><path d="m609.2 566c6.4 6.4 12.6 12.4 18.6 18.5 4.3 4.2 4.2 5.7 0 9.9-6.9 7-13.9 14-20.9 20.9-3.3 3.3-5.3 3.4-8.6.1l-19-19.2-2.8 2.6c-5.7 5.7-11.3 11.4-17 17-2.9 2.8-4.9 2.7-7.8 0l-22.2-22.3c-3.1-3.1-3.1-5 .1-8.3l16.5-16.4 2.7-3-18.7-18.6c-3.9-3.9-3.9-5.5-.1-9.4l21.3-21.2c3.2-3.2 5.3-3.2 8.5 0 6.3 6.2 12.6 12.5 19.2 19.2 2.9-2.8 5.6-5.5 8.2-8.2l11.5-11.4c2.7-2.7 5-2.7 7.7 0 7.5 7.4 14.9 14.8 22.3 22.3 3.1 3.1 3 5-.2 8.3zm10.4-23-17.5-17.4-2.4 2.3c-5.6 5.6-11.1 11.2-16.7 16.7-2.9 2.8-4.9 2.8-7.8.1s-6.4-6.3-9.5-9.6-6.5-6.8-9.4-9.8l-17.7 17.6 18.6 18.6c3.4 3.5 3.4 5.4 0 8.9s-8.4 8.5-12.7 12.7c-2.2 2-4.6 3.8-6.5 5.3 6.6 6.6 12.2 12.3 18.5 18.5a25.8 25.8 0 0 1 2.2-3.1c5.5-5.5 10.9-11 16.5-16.4 2.7-2.8 5-2.7 7.7-.1s4.8 4.8 7.2 7.1l12 12 17.4-17.4-18.2-18.3c-3.9-3.8-3.9-5.6-.1-9.4z"/><path d="m651 515.3c-2.7-.1-6.3-4.1-6.2-7a4.2 4.2 0 0 1 4.6-4.3c2.7 0 6.3 4.2 6.2 7a4.3 4.3 0 0 1 -4.6 4.3z"/></g></svg>