<svg viewBox="0 0 384 383.2" xmlns="http://www.w3.org/2000/svg"><g transform="translate(-402 -289)"><path d="m582 289h24c1 .2 1.9.5 2.9.6 9.8 1.5 19.8 2.5 29.5 4.7 74 16.8 132.2 78.6 144.7 153.3 1.2 7 1.9 14 2.9 21v24a19.1 19.1 0 0 0 -.6 3.3 188.3 188.3 0 0 1 -14.2 58.6c-36 85.5-126.4 132.6-217.6 113.4-76.1-16-135.6-77.7-148.7-154.2-1.2-7-1.9-14.1-2.9-21.1v-24a30.3 30.3 0 0 0 .6-3.2c1.3-8.6 2.1-17.3 3.9-25.9 15.5-74.7 78.7-135.2 154-147.6 7.2-1.1 14.3-1.9 21.5-2.9zm174 191.7c.1-89-72.5-161.6-161.8-161.8s-162 72.3-162.2 161.4 72.6 162 162 162 161.9-72.5 162-161.6z"/><path d="m609 520.7v32.1c-.1 12.2-6.5 21.2-15 21.2s-15-9.1-15-21.2v-64.3c0-11.9 6.3-20.7 14.8-20.8s15.1 8.6 15.2 20.9z"/><path d="m594 444.1a14.9 14.9 0 1 1 .2-29.7 14.9 14.9 0 1 1 -.2 29.7z"/></g></svg>