<svg viewBox="0 0 254.6 259.4" xmlns="http://www.w3.org/2000/svg" xmlns:xlink="http://www.w3.org/1999/xlink"><linearGradient id="a" gradientUnits="userSpaceOnUse" x1="122.69" x2="236.01" y1="155.98" y2="155.98"><stop offset="0" stop-color="#3c995e"/><stop offset="1" stop-color="#5bb977"/></linearGradient><linearGradient id="b" x1="127.78" x2="321.17" xlink:href="#a" y1="249.63" y2="249.63"/><linearGradient id="c" x1="151.15" x2="347.45" xlink:href="#a" y1="307.36" y2="307.36"/><linearGradient id="d" x1="259.13" x2="377.33" xlink:href="#a" y1="259.46" y2="259.46"/><path d="m122.7 138.8a56.6 56.6 0 0 1 40.7-53.6c30.1-8.5 60.2 7.6 70 37.3 4.1 12.3 3.3 24.5-1.9 36.5-6.8 15.6-16.1 29.6-26.4 43-6.2 8.1-12.9 16-19.5 23.9a7.8 7.8 0 0 1 -12.4.1c-16.2-18.5-31.4-37.8-42.6-59.8-4.1-8.1-7.6-16.4-7.9-25.7zm80.9 1.1c.3-13.1-10.7-24.3-24.1-24.5s-24 10.5-24.4 23.9a24.4 24.4 0 0 0 23.9 24.7c13.2.3 24.2-10.5 24.6-24.1z" fill="url(#a)" transform="translate(-122.7 -83)"/><path d="m147.8 221.2c2.1 2.6 4.1 5 6.2 7.4s5.9 7.3 9.3 10.3c10.4 9.2 25.5 8 34.6-2.4 14.9-17.1 28.9-34.8 40.1-54.6.8-1.5 1.8-1.7 3.2-1.7h70.5c4.8 0 7.9 2.1 9.1 5.8s-.4 7.1-4.4 9.9l-128.2 88.7-46.6 32.3c-2.4 1.7-5 2.8-8 1.8a8.1 8.1 0 0 1 -5.6-9.8c6.4-28.9 12.8-57.9 19.3-86.8 0-.2.2-.4.5-.9z" fill="url(#b)" transform="translate(-122.7 -83)"/><path d="m249.2 342.4h-88.9c-5.8 0-9.7-3.8-9.1-9 .3-3.1 2.2-5 4.6-6.7 19.1-13.1 38.2-26.4 57.2-39.6 6.2-4.2 12.4-8.4 18.5-12.8 3.5-2.5 6.9-2.6 10.7-.6l99.6 52.7c6.1 3.3 7.6 9.9 2.8 13.8a11.6 11.6 0 0 1 -6.8 2.1c-29.5.2-59.1.1-88.6.1z" fill="url(#c)" transform="translate(-122.7 -83)"/><path d="m377.3 312.9c.2 6.2-5.6 10.3-11 8.1a67.5 67.5 0 0 1 -6.5-3.4l-94.9-50.2c-4.9-2.6-6.9-6.5-5.1-10.6a10.3 10.3 0 0 1 3.6-4.4q38.3-26.7 76.7-53.2c5.6-3.8 11.8-1.4 13.3 5.1l23.7 106.5a9 9 0 0 1 .2 2.1z" fill="url(#d)" transform="translate(-122.7 -83)"/></svg>