<svg viewBox="0 0 859.2 898.5" xmlns="http://www.w3.org/2000/svg" xmlns:xlink="http://www.w3.org/1999/xlink"><linearGradient id="a" gradientUnits="userSpaceOnUse" x1="422.66" x2="613.23" y1="1166.24" y2="1166.24"><stop offset="0" stop-color="#5bb977"/><stop offset="1" stop-color="#3c995e"/></linearGradient><linearGradient id="b" gradientUnits="userSpaceOnUse" x1="517.95" x2="517.95" y1="325.23" y2="1063.13"><stop offset="0" stop-color="#3c995e"/><stop offset="1" stop-color="#5bb977"/></linearGradient><g fill-rule="evenodd"><path d="m517.9 1213.2c52.7 0 95.3-42 95.3-93.9h-190.5c0 51.9 42.6 93.9 95.2 93.9z" fill="url(#a)" transform="translate(-88.3 -314.6)"/><path d="m938.3 1019-99.6-110.7a89.7 89.7 0 0 1 -23.2-60.2v-157.2c0-148.3-108.8-277.2-254.8-298.3v-35.2a42.8 42.8 0 1 0 -85.5 0v35.4c-144 20.4-254.8 142.3-254.8 289.8v165.5a89.7 89.7 0 0 1 -23.2 60.2l-99.6 110.7c-20.9 23.2-4.2 59.8 27.3 59.8h786.1c31.5 0 48.2-36.6 27.3-59.8z" fill="url(#b)" transform="translate(-88.3 -314.6)"/></g></svg>