<svg viewBox="0 0 347.9 347.6" xmlns="http://www.w3.org/2000/svg"><g fill="#000f00" transform="translate(-99.3 -55.2)"><path d="m331 84.5h-115.4l-.2.3 2.4 1 43.2 12.9c8.6 2.6 12.2 7.3 12.2 16.4v229.6h57.8v-69.9c0-4.8.9-9.3 4.5-12.7s9.8-5.2 15.4-3a13.5 13.5 0 0 1 9.1 12.8c.3 5.3.1 10.6.1 15.9 0 23.1-.3 46.2.1 69.3.2 8.7-5.2 17.1-17 16.9-21.8-.4-43.7-.1-65.5-.1h-4.5c0 4.3-.3 8.3 0 12.3.8 12.2-9.7 18.2-19.1 16.2-35.7-7.5-71.5-14.4-107.2-21.6-11.7-2.3-23.5-4.6-35.2-7.1-8.1-1.6-12.4-7.1-12.4-15.3v-286.9c0-10.2 6-16.3 16.2-16.3h228.9c9.7 0 15.7 6 15.7 15.7v85.5c0 7.7-5.1 13.3-12.6 14.5a14.1 14.1 0 0 1 -15.5-9.7 30.7 30.7 0 0 1 -1-7.4z"/><path d="m397.6 229.1h-80.6c-6 0-10.5-2.6-13.2-7.9a13.9 13.9 0 0 1 1.2-15.2c3.3-4.6 8.2-6 13.6-6h78.4c-1-1.2-1.5-1.9-2.2-2.6-5.2-5.3-10.6-10.5-15.8-15.9s-5.7-9.7-3.4-15.6 6.5-8.6 12.4-9.2a14 14 0 0 1 11.4 4.3c14.4 14.3 28.9 28.6 43.2 43.2 6.3 6.4 6 14.7-.4 21.1q-21 21.3-42.2 42.3c-6.4 6.4-15.3 6.6-21.2.6s-5.6-14.6.8-21.2 11.5-11.5 18-17.9z"/></g></svg>