<svg id="Camada_1" data-name="Camada 1" xmlns="http://www.w3.org/2000/svg" viewBox="0 0 383.24 383.15"><path d="M338.35,960.57c1.77-3.62,1.47-7.63,2-11.46a189.21,189.21,0,0,1,33.14-82.67c2.94-4.17,7.32-5.3,10.93-2.89,3.83,2.55,4.43,7,1.28,11.46-14.24,20.34-24.28,42.54-28.85,67-10.42,55.65,2.29,105.59,38.5,149.09,23.69,28.45,53.81,47.65,89.78,56.6,58.86,14.64,112.17,2.52,158.82-36.22,31.54-26.2,50.93-60.11,59.14-100.31C719.88,929.09,674.06,843.82,596,813.44c-58.57-22.8-114.42-16.18-166.85,18.59-.83.55-1.62,1.17-2.48,1.66-3.77,2.17-8,1.28-10.23-2.12a7.46,7.46,0,0,1,2-10.26,175.85,175.85,0,0,1,25.83-15.65A191.6,191.6,0,0,1,714.31,925c28.11,97.93-27.72,202.81-124.54,234a189.21,189.21,0,0,1-44.17,8.82c-.59,0-1.27-.11-1.49.71H514.18c-.31-1-1.18-.71-1.86-.77a210.14,210.14,0,0,1-24.71-3.85c-75.87-16.31-136-81.17-147.2-158.6-.6-4.21-.36-8.58-2.06-12.62Z" transform="translate(-338.35 -785.43)" fill="#030303"/><path d="M572.23,966.19a94.8,94.8,0,0,1,15.28,11.95c9.13,9,9.55,22.82,1,31.89a22.42,22.42,0,0,1-31.6.81,43.39,43.39,0,0,0-15.42-9.56c-2.05-.69-3.57-.72-5.24,1.1-3.65,4-7.61,7.73-11.89,12,3.74.49,6.94-.17,10.09.55,11.6,2.61,19.45,13.46,17.77,24.86a22.45,22.45,0,0,1-44.69-3.71c0-.75.15-1.49.13-2.24,0-.44-.11-1.06-.41-1.28-.62-.47-1.13,0-1.57.5l-1.33,1.31q-29.22,29.23-58.51,58.4c-2.25,2.23-1.92,3.07.49,4.76,47.57,33.47,112.73,34.88,162,3.4,1.05-.67,2.07-1.38,3.16-2,4-2.25,8.25-1.34,10.46,2.19s1.31,7.82-2.52,10.42a132,132,0,0,1-24.85,13.57q-88.87,35.74-165.49-21.87c-6-4.51-6.13-8.65-.87-13.91q41-41,82-82a12.83,12.83,0,0,0,2.42-3.07,21.67,21.67,0,0,0-8.25,5.37c-6.24,6.15-13.6,8.62-22.18,6.57-2.19-.52-2.93.92-4,2Q448.26,1048,418.38,1078c-6.33,6.33-9.92,6.15-15.44-1-24.63-31.77-36.32-67.83-34.44-107.91C371.83,898,421.3,837.3,490.43,820.39c51.29-12.55,98.22-1.94,140.14,30.26,6.12,4.69,6.3,8.79.9,14.2l-39.68,39.68c-.86.86-1.68,1.76-2.7,2.83,4.33,2.32,8.46,4.56,12.6,6.76,1.8,1,2.42-.77,3.29-1.64q18.43-18.33,36.8-36.73c5.78-5.79,9.66-5.64,14.69.84q40.46,52.14,34.07,117.85a156.82,156.82,0,0,1-25.77,71.63c-2,3-4.51,4.62-8.14,4-3.32-.56-5.21-2.73-6-5.91-.62-2.52.5-4.6,1.83-6.62a142.47,142.47,0,0,0,22.26-57.67q8.64-58.39-24.86-107.18c-1.2-1.75-1.85-2.12-3.52-.43q-14.43,14.65-29.09,29.09c-1.56,1.54-1.56,2.31.22,3.63a107,107,0,0,1,12.88,11.38,22.4,22.4,0,0,1-30.9,32.42,180.9,180.9,0,0,0-14-11.79c-1.79-1.3-2.79-1.18-4.27.42C578.41,960.41,575.36,963.16,572.23,966.19Zm-36.61-26.41a98.46,98.46,0,0,0-44.12,7.7c-11.84,5-21.9,12.6-31.29,21.32a22,22,0,0,1-31.27-1.16,22.27,22.27,0,0,1,.56-31.31,123.14,123.14,0,0,1,11.69-10.46c39-30.06,82.27-38.17,129.62-25.14,1.78.5,3,.71,4.58-.86q19.44-19.71,39.13-39.16c1.81-1.79,1.51-2.49-.43-3.76-47.4-31.2-97.47-36.26-148.45-11.32-49.2,24.08-76.55,65-81.72,119.77-3.3,34.91,6.09,66.78,25.79,95.7,1.36,2,2.1,2.36,4,.43q26.46-26.7,53.14-53.18c1.17-1.16,1.54-2,.73-3.76-4.57-9.75-2.82-19.14,4.86-26.63a81.41,81.41,0,0,1,45.37-22.53,4.86,4.86,0,0,0,3-1.1C525.54,949.68,530.23,945.08,535.62,939.78ZM622,952.19c.06-2.75-1.49-4.63-3.32-6.42-41.23-40.29-105.15-47.72-154.38-17.9a124,124,0,0,0-24,18.87c-3.2,3.24-3.22,7.71-.29,10.7s7,3,10.42.18c.95-.8,1.83-1.69,2.74-2.54a112.12,112.12,0,0,1,136.68-13.15,126.5,126.5,0,0,1,19.55,15.58,7,7,0,0,0,8.26,1.49A7.16,7.16,0,0,0,622,952.19Zm-89,17.36c-20.51,0-37.67,6.89-49.73,18.73-3.72,3.66-4.2,8-1.25,11.25s7.56,3.21,11.55-.37c22-19.67,50.28-19.68,72.58,0,1.31,1.15,2.59,2.34,4.42,2.63,3.58.57,6.41-.53,8.2-3.76s1-6.54-2-9.44C563.68,976,548,969.81,533,969.55Zm36.6-21.29c-5-2.61-9.75-3.92-14.48-5.41-1.19-.37-1.86.18-2.6.92-3.71,3.67-7.44,7.32-11.54,11.36,5.62,1.26,10.75,2.06,15.61,3.9a2.31,2.31,0,0,0,2.66-.75C562.6,955,566,951.73,569.61,948.26Zm-32.26,88.49a7.46,7.46,0,1,0-7.52,7.6A7.53,7.53,0,0,0,537.35,1036.75Z" transform="translate(-338.35 -785.43)" fill="#030303"/><path d="M407.19,847a7.47,7.47,0,0,1-7.8,7.28,7.55,7.55,0,0,1-7.13-7.61,7.64,7.64,0,0,1,7.47-7.31A7.5,7.5,0,0,1,407.19,847Z" transform="translate(-338.35 -785.43)" fill="#030303"/><path d="M631.5,1086.12a7.24,7.24,0,0,1,7.1-7.49,7.48,7.48,0,0,1,7.78,7.3,7.74,7.74,0,0,1-7.59,7.61A7.48,7.48,0,0,1,631.5,1086.12Z" transform="translate(-338.35 -785.43)" fill="#030303"/><path d="M569.61,948.26c-3.6,3.47-7,6.71-10.35,10a2.31,2.31,0,0,1-2.66.75c-4.86-1.84-10-2.64-15.61-3.9,4.1-4,7.83-7.69,11.54-11.36.74-.74,1.41-1.29,2.6-.92C559.86,944.34,564.65,945.65,569.61,948.26Z" transform="translate(-338.35 -785.43)" fill="#fcfcfc"/></svg>