<svg viewBox="0 0 256.2 256.1" xmlns="http://www.w3.org/2000/svg"><path d="m108.7 210.8c0-70.6 57.5-128 128.2-128s128 57.6 128 128.3-57.6 127.9-128.4 127.8-127.8-57.6-127.8-128.1zm138.7 53.5v-73.9c0-7.2-4.3-11.5-11.5-11.5h-17.5a10.7 10.7 0 0 0 -8.4 3.7 10.2 10.2 0 0 0 -1.6 11.3c1.9 4.2 5.4 6.2 9.9 6.3 2.6.1 5.1 0 7.7 0v64.1c-4.7 0-9.2-.1-13.8.1a10.3 10.3 0 0 0 -10 10.3c-.1 5.9 4.2 10.7 9.9 10.7h49.3a9.6 9.6 0 0 0 7.6-3.8 10.2 10.2 0 0 0 1.4-11.2 9.5 9.5 0 0 0 -9.2-6.1zm0-117.4a10.6 10.6 0 1 0 -10.7 10.5 10.4 10.4 0 0 0 10.7-10.5z" transform="translate(-108.7 -82.8)"/></svg>