<svg viewBox="0 0 360.1 360.3" xmlns="http://www.w3.org/2000/svg"><g transform="translate(-359.8 -647.7)"><path d="m372.1 825.7c0 83.6 58.6 153.2 138.8 167.5 90.7 16.1 177.7-44.3 194.2-134.8a162.7 162.7 0 0 0 1.6-50.7c-.6-4.6 1.3-7.7 5.1-8.2s6.2 2.1 6.8 6.7a180.1 180.1 0 0 1 -127.3 194.4c-100.4 29.9-205.8-32.6-227.4-134.8a180.1 180.1 0 0 1 141.9-214.7c35.9-7 70.9-3.1 104.6 11.1 4.4 1.9 6.1 5 4.6 8.4s-4.8 4.6-9.2 2.7a165 165 0 0 0 -83.2-12.5c-34.8 3.8-65.7 16.9-92.1 39.8-32 27.8-50.7 62.9-56.9 104.7-.4 2.6-.6 5.2-.8 7.9-.4 4.9-.6 9.9-.7 12.5z"/><path d="m717 716.6c-.2 10-3.1 18.2-9.1 25.2-1.5 1.7-3.1 3.3-4.7 4.9q-78.3 78.4-156.7 156.7c-17.4 17.5-39.9 17.5-57.3.1s-36.3-36.2-54.3-54.4c-15.9-16-15.9-40-.2-54.9a37.3 37.3 0 0 1 51.6-.4c9.1 8.5 17.8 17.6 26.6 26.4 4.1 4 5.8 4 9.9-.1l128.4-128.4c13.7-13.7 32.8-16.3 48.2-6.4 11.6 7.5 17.1 18.4 17.6 31.3zm-199.3 187.9a27.5 27.5 0 0 0 19.4-8.6l159.1-159.2a26.1 26.1 0 0 0 2.3-2.4 25.8 25.8 0 0 0 -4.4-38c-10.8-7.7-24.3-6.2-34.3 3.9q-64.3 64.2-128.6 128.6c-8.7 8.6-18 8.7-26.6.1s-17.2-17.5-26-25.9a25.7 25.7 0 0 0 -36.5 36.3c19.2 19.5 38.6 38.8 58.1 58.1 4.8 4.8 10.8 6.9 17.5 7.1z"/></g></svg>